# xmcd
#
# Track frame offsets:
#	150
#	19822
#	34388
#	52118
#	68113
#	85535
#	101766
#	118303
#	131940
#	151957
#	163816
#	178933
#	208769
#
# Disc length: 2834 seconds
#
# Revision: 13
# Processed by: cddbd v1.5.2PL0 Copyright (c) Steve Scherf et al.
# Submitted via: audiograbber 1.83.01
#
DISCID=c10b100d
DTITLE=Marla Glen - Friends
DYEAR=2003
DGENRE=Blues
TTITLE0=Friends
TTITLE1=Lay With You
TTITLE2=Mad
TTITLE3=Crazy World
TTITLE4=God
TTITLE5=Hanging Around
TTITLE6=Same Way
TTITLE7=Dreams
TTITLE8=Earthly Power
TTITLE9=I See Blood
TTITLE10=Shut Your Mouth
TTITLE11=Child
TTITLE12=Data
EXTD=
EXTT0=
EXTT1=
EXTT2=
EXTT3=
EXTT4=
EXTT5=
EXTT6=
EXTT7=
EXTT8=
EXTT9=
EXTT10=
EXTT11=
EXTT12=
PLAYORDER=
